<svg width="97" height="97" viewBox="0 0 97 97" fill="none" xmlns="http://www.w3.org/2000/svg">
<g id="contatos">
<rect id="Rectangle 44" width="97" height="97" rx="15" fill="#FF8282"/>
<path id="Vector" d="M49 57.5C54.3043 57.5 59.3914 55.4192 63.1421 51.7154C66.8929 48.0115 69 42.988 69 37.75C69 32.512 66.8929 27.4885 63.1421 23.7846C59.3914 20.0808 54.3043 18 49 18C43.6957 18 38.6086 20.0808 34.8579 23.7846C31.1071 27.4885 29 32.512 29 37.75C29 42.988 31.1071 48.0115 34.8579 51.7154C38.6086 55.4192 43.6957 57.5 49 57.5ZM41.8594 64.9062C26.4688 64.9062 14 77.2191 14 92.4174C14 94.9479 16.0781 97 18.6406 97H79.3594C81.9219 97 84 94.9479 84 92.4174C84 77.2191 71.5312 64.9062 56.1406 64.9062H41.8594Z" fill="white"/>
</g>
</svg>
